<?xml version="1.0" encoding="UTF-8"?>
<svg version="1.1" xmlns="http://www.w3.org/2000/svg" width="1024" height="1024">
<path d="M0 0 C337.92 0 675.84 0 1024 0 C1024 337.92 1024 675.84 1024 1024 C686.08 1024 348.16 1024 0 1024 C0 686.08 0 348.16 0 0 Z " fill="#071323" transform="translate(0,0)"/>
<path d="M0 0 C34.90943196 7.2803349 66.07220131 22.60347368 93 46 C93.54736816 46.4729248 94.09473633 46.94584961 94.65869141 47.43310547 C114.00005098 64.27533419 129.38807921 84.14079635 141 107 C141.35787598 107.69270996 141.71575195 108.38541992 142.08447266 109.09912109 C163.86359061 151.60401412 168.52287412 201.63289361 158 248 C157.83661133 248.72864258 157.67322266 249.45728516 157.50488281 250.20800781 C149.11943734 286.71027047 130.17366123 318.61198894 105 346 C106.3134881 348.77075248 107.77552964 351.21979592 109.58203125 353.6953125 C110.35160156 354.75492188 110.35160156 354.75492188 111.13671875 355.8359375 C111.68972656 356.59132813 112.24273438 357.34671875 112.8125 358.125 C113.99617117 359.75254786 115.17976273 361.38015363 116.36328125 363.0078125 C116.96865723 363.83829102 117.5740332 364.66876953 118.19775391 365.52441406 C120.97655018 369.34140054 123.73811686 373.17076718 126.5 377 C129.74211084 381.49406817 132.98739461 385.98562379 136.25 390.46484375 C142.4194023 398.9476561 148.44514145 407.51005943 154.3425293 416.18432617 C157.44668079 420.74572905 160.58775022 425.27309753 163.8125 429.75 C168.19040314 435.82986631 172.47646273 441.97138958 176.75 448.125 C184.14151279 458.76773552 191.55515252 469.3944987 199 480 C199.5151416 480.73412109 200.0302832 481.46824219 200.56103516 482.22460938 C206.1706406 490.21311972 211.8300655 498.16162914 217.5625 506.0625 C222.05181466 512.25401866 226.44892831 518.49822766 230.76147461 524.81396484 C233.91084575 529.42454863 237.09383247 534.01016491 240.29882812 538.58227539 C241.50660189 540.30529062 242.71236581 542.0297166 243.91601562 543.75561523 C246.54867693 547.52740884 249.1937762 551.28374139 251.92578125 554.984375 C252.35552246 555.57581299 252.78526367 556.16725098 253.22802734 556.77661133 C254.34876569 558.31564705 255.48431626 559.84386675 256.62109375 561.37109375 C258 564 258 564 257.92138672 566.41894531 C256.64410902 569.99694737 254.82821951 570.91421969 251.63671875 572.92578125 C250.81588554 573.45270821 250.81588554 573.45270821 249.97846985 573.99028015 C248.22366415 575.11238399 246.45636638 576.2127255 244.6875 577.3125 C242.96850984 578.4017683 241.25230554 579.4953327 239.53616333 580.58908081 C238.39402191 581.31408418 237.24920681 582.03489246 236.10177612 582.75149536 C233.24833138 584.53776931 230.450713 586.36525347 227.71337891 588.32568359 C226.16336182 589.42323975 226.16336182 589.42323975 224.58203125 590.54296875 C223.67300049 591.20707764 222.76396973 591.87118652 221.82739258 592.55541992 C218.31743039 594.34874056 215.89183716 594.38590497 212 594 C210.0234375 592.26171875 210.0234375 592.26171875 208.375 589.6875 C207.70210937 588.67558594 207.02921875 587.66367187 206.3359375 586.62109375 C205.96694336 586.04601074 205.59794922 585.47092773 205.21777344 584.87841797 C203.40431575 582.08115585 201.50581896 579.34404632 199.61547852 576.59838867 C197.94626586 574.17188776 196.28709714 571.73873133 194.62890625 569.3046875 C184.24391749 554.09391803 173.64520561 539.02938808 163 524 C149.96559973 505.59743764 136.97942009 487.17024763 124.57910156 468.33178711 C120.82686327 462.6517256 116.9342407 457.10884077 112.90625 451.62109375 C110.10091134 447.7637531 107.42382733 443.82408308 104.75 439.875 C97.01488331 428.51686463 89.11951847 417.28144083 81.03979492 406.16577148 C74.80283603 397.58366483 68.80292359 388.88122391 63 380 C59.78629333 380.65555954 57.28100476 381.81278968 54.421875 383.40625 C3.93383569 410.99114852 -52.63143648 418.68702439 -108.23242188 402.82373047 C-129.77747408 396.41115053 -150.4115328 386.62803478 -169 374 C-169.59039062 373.60490234 -170.18078125 373.20980469 -170.7890625 372.80273438 C-196.12623253 355.75316291 -216.85589022 333.83721932 -233 308 C-233.37866211 307.39526855 -233.75732422 306.79053711 -234.14746094 306.16748047 C-239.45520882 297.55217243 -243.64127481 288.57335343 -247.5625 279.25 C-248.00464844 278.20142822 -248.44679688 277.15285645 -248.90234375 276.07250977 C-249.30710937 275.08436279 -249.711875 274.09621582 -250.12890625 273.078125 C-250.49056885 272.19543945 -250.85223145 271.31275391 -251.22485352 270.40332031 C-252 268 -252 268 -252 264 C-247.03924001 262.87271125 -242.07706473 261.75195044 -237.11352539 260.63696289 C-235.42856021 260.25752724 -233.7439806 259.87637487 -232.05981445 259.4934082 C-229.62553025 258.94019458 -227.18988188 258.39336758 -224.75390625 257.84765625 C-224.01290176 257.6778273 -223.27189728 257.50799835 -222.50843811 257.33302307 C-217.35246227 256.18670983 -212.25785219 255.51146422 -207 255 C-206.56429687 255.94359375 -206.12859375 256.8871875 -205.6796875 257.859375 C-204.10697344 261.2577914 -202.51470694 264.64676605 -200.91845703 268.03417969 C-200.13742872 269.70585432 -199.37702276 271.38713912 -198.62109375 273.0703125 C-192.27421214 286.67347965 -182.91835464 298.84192626 -172.44482422 309.52441406 C-170.90816685 311.09378837 -169.39400583 312.68325912 -167.87890625 314.2734375 C-144.20503832 338.84241538 -112.56444154 355.73519076 -79 362 C-77.38931641 362.30744141 -77.38931641 362.30744141 -75.74609375 362.62109375 C-31.88270581 369.72745269 14.26708969 357.30384125 50.08935547 331.56103516 C56.86105336 326.52742266 62.97799252 320.89549471 69 315 C69.73476563 314.31550781 70.46953125 313.63101562 71.2265625 312.92578125 C98.48457913 287.02523556 114.19708306 246.47499594 115.19580078 209.34886169 C115.53516977 192.89348828 115.68944841 176.92285424 111 161 C110.6299585 159.71246826 110.6299585 159.71246826 110.25244141 158.39892578 C106.69647967 146.29468524 102.13674634 135.0153313 96 124 C95.65211426 123.36368652 95.30422852 122.72737305 94.94580078 122.07177734 C89.96039727 113.02960155 84.21816481 105.13933621 77.31689453 97.46826172 C76.07916497 96.08826439 74.86488043 94.68734093 73.65234375 93.28515625 C52.60620812 69.19531141 23.99932418 53.31444728 -7 46 C-5.97737111 35.46423126 -4.60932904 25.01596627 -2.9375 14.5625 C-2.7631543 13.46687744 -2.58880859 12.37125488 -2.40917969 11.24243164 C-1.13179777 3.39539332 -1.13179777 3.39539332 0 0 Z " fill="#FDFDFD" transform="translate(570,249)"/>
<path d="M0 0 C-0.34025844 9.35710718 -1.57877574 18.5044422 -3 27.75 C-3.17821289 28.91708496 -3.35642578 30.08416992 -3.54003906 31.28662109 C-4.86887058 39.73774116 -4.86887058 39.73774116 -6 42 C-6.64827759 41.99111755 -7.29655518 41.98223511 -7.96447754 41.9730835 C-14.84536718 41.88308714 -21.72608428 41.8236505 -28.60742188 41.78027344 C-31.15957451 41.76042478 -33.71168336 41.733337 -36.26367188 41.69824219 C-89.40291447 40.98692949 -138.71134382 58.57337041 -180 92 C-180.51449707 92.4115332 -181.02899414 92.82306641 -181.55908203 93.24707031 C-196.06068356 104.89345761 -208.9867489 118.01307199 -220 133 C-220.85916992 134.14077948 -221.71854547 135.28140413 -222.578125 136.421875 C-228.85355513 144.86091643 -234.06869462 153.72261315 -239 163 C-239.33741211 163.62036133 -239.67482422 164.24072266 -240.02246094 164.87988281 C-254.34967221 191.3118404 -262.14562088 220.32933613 -266 250 C-266.08784256 250.63339798 -266.17568512 251.26679596 -266.26618958 251.91938782 C-267.08751399 258.37249497 -267.12839887 264.7555761 -267.09765625 271.25390625 C-267.09553383 272.96609596 -267.09553383 272.96609596 -267.09336853 274.71287537 C-267.08780751 278.32944449 -267.07526231 281.94594984 -267.0625 285.5625 C-267.05747996 288.02669181 -267.05291794 290.4908846 -267.04882812 292.95507812 C-267.03785087 298.97007354 -267.02115194 304.98503221 -267 311 C-272.35603704 312.14318878 -277.71289527 313.28241684 -283.07055664 314.41796875 C-284.89337969 314.80489869 -286.71597281 315.19291349 -288.53833008 315.58203125 C-291.15646756 316.14087138 -293.77540481 316.69581591 -296.39453125 317.25 C-297.21025101 317.42499023 -298.02597076 317.59998047 -298.8664093 317.78027344 C-301.9639266 318.43257662 -304.82496779 319 -308 319 C-309.92626299 305.7874016 -310.36216249 292.77861381 -310.3125 279.4375 C-310.31067719 278.4208728 -310.30885437 277.40424561 -310.30697632 276.35681152 C-310.26162821 261.33314508 -309.68981822 246.80988495 -307 232 C-306.65562998 229.9037476 -306.31190959 227.80738839 -305.96875 225.7109375 C-297.29766435 175.02134188 -274.06378846 126.71274265 -239 89 C-237.89178922 87.71180139 -236.78750644 86.42021142 -235.6875 85.125 C-228.3477243 76.73426335 -220.41336763 69.0458605 -211.67578125 62.125 C-209.9592491 60.76179783 -208.26630131 59.36803767 -206.60546875 57.9375 C-192.83786012 46.14288725 -177.06641031 36.3450168 -161 28 C-159.81639893 27.37279053 -159.81639893 27.37279053 -158.60888672 26.73291016 C-134.51795606 14.09012996 -107.90460962 5.14429598 -81 1 C-79.97374512 0.84063965 -78.94749023 0.6812793 -77.89013672 0.51708984 C-52.14580398 -3.28948045 -25.80261843 -3.28770565 0 0 Z " fill="#FDFDFD" transform="translate(542,170)"/>
<path d="M0 0 C1.58788921 0.00502753 3.17577996 0.00958821 4.76367188 0.01367188 C8.61332025 0.02457245 12.46289253 0.04176717 16.3125 0.0625 C14.43636123 14.08226368 12.45077795 28.08028535 10.3125 42.0625 C9.76126465 42.07708252 9.2100293 42.09166504 8.64208984 42.10668945 C-17.45617144 42.86795599 -42.05821171 45.87270603 -65.81884766 57.17724609 C-67.60191826 58.02195657 -69.40030064 58.83411764 -71.19921875 59.64453125 C-86.79136784 66.95168436 -100.13639386 77.49685641 -112.25390625 89.6328125 C-113.67126382 91.04789502 -115.10427771 92.44821353 -116.57421875 93.80859375 C-141.12947783 116.87242711 -156.43413699 154.79709998 -158.6875 188.0625 C-159.00449185 198.39437255 -158.88207553 208.72904278 -158.6875 219.0625 C-167.90479845 221.30712708 -177.14061167 223.42154929 -186.4375 225.3125 C-187.2821582 225.48749023 -188.12681641 225.66248047 -188.99707031 225.84277344 C-189.79725586 226.00293945 -190.59744141 226.16310547 -191.421875 226.328125 C-192.47713379 226.54130371 -192.47713379 226.54130371 -193.55371094 226.75878906 C-195.95419125 227.10045926 -198.26600327 227.11226403 -200.6875 227.0625 C-206.15248287 175.89038769 -193.78466678 121.94976225 -161.6875 81.0625 C-161.06617188 80.25039063 -160.44484375 79.43828125 -159.8046875 78.6015625 C-154.46366614 71.74689136 -148.63951046 65.38376369 -142.6875 59.0625 C-142.03136719 58.35222656 -141.37523437 57.64195312 -140.69921875 56.91015625 C-134.63916945 50.56462283 -127.65942887 45.35251611 -120.6875 40.0625 C-119.75679688 39.34835937 -118.82609375 38.63421875 -117.8671875 37.8984375 C-83.58868293 12.21514004 -42.52722914 -0.23603971 0 0 Z " fill="#FDFDFD" transform="translate(513.6875,245.9375)"/>
<path d="M0 0 C-1.65796068 13.40407011 -3.48802201 26.72749219 -6 40 C-7.19753906 40.21914063 -8.39507812 40.43828125 -9.62890625 40.6640625 C-33.64520083 45.25760026 -54.05494929 54.81184506 -68.49658203 75.40234375 C-78.59820824 90.59349442 -82.2771779 106.97929724 -83 125 C-91.08355453 127.18043247 -99.24825723 128.95539651 -107.4375 130.6875 C-108.49195313 130.91397217 -109.54640625 131.14044434 -110.6328125 131.3737793 C-111.63957031 131.58429932 -112.64632813 131.79481934 -113.68359375 132.01171875 C-114.58650146 132.20209717 -115.48940918 132.39247559 -116.41967773 132.58862305 C-118.99361815 132.99898255 -121.39847286 133.07412843 -124 133 C-124.85774772 102.12767999 -124.85774772 102.12767999 -120 87 C-119.78037598 86.31550781 -119.56075195 85.63101563 -119.33447266 84.92578125 C-108.58294422 52.48097072 -86.57621078 27.43034482 -56.3125 11.75 C-47.29256392 7.26185168 -37.72737812 4.50801215 -28 2 C-26.97132813 1.731875 -25.94265625 1.46375 -24.8828125 1.1875 C-16.71310009 -0.60040059 -8.31469843 -0.17545671 0 0 Z " fill="#FDFDFD" transform="translate(517,327)"/>
<path d="M0 0 C10.23 0 20.46 0 31 0 C31 0.33 31 0.66 31 1 C29.35 1.33 27.7 1.66 26 2 C26 2.33 26 2.66 26 3 C17.75 3 9.5 3 1 3 C0.67 2.01 0.34 1.02 0 0 Z " fill="#171C27" transform="translate(505,611)"/>
<path d="M0 0 C0.99 0 1.98 0 3 0 C3 6.6 3 13.2 3 20 C3.66 20.33 4.32 20.66 5 21 C3.68 21 2.36 21 1 21 C-0.17426264 18.65147472 -0.11508173 17.26225935 -0.09765625 14.6484375 C-0.09443359 13.79765625 -0.09121094 12.946875 -0.08789062 12.0703125 C-0.07951172 11.18085938 -0.07113281 10.29140625 -0.0625 9.375 C-0.05798828 8.4778125 -0.05347656 7.580625 -0.04882812 6.65625 C-0.03702591 4.43743352 -0.02056155 2.21874982 0 0 Z " fill="#41474F" transform="translate(390,440)"/>
<path d="M0 0 C3.281513 6.01842058 3.11597353 13.916698 1.32421875 20.47265625 C0.5 22.375 0.5 22.375 -1 25 C-1.97963374 21.82662906 -2.00148074 19.30840242 -1.66015625 16.015625 C-1.56669922 15.08105469 -1.47324219 14.14648438 -1.37695312 13.18359375 C-1.27318359 12.21550781 -1.16941406 11.24742187 -1.0625 10.25 C-0.96259766 9.26644531 -0.86269531 8.28289062 -0.75976562 7.26953125 C-0.51267098 4.84565041 -0.25920287 2.42261093 0 0 Z " fill="#23262F" transform="translate(732,460)"/>
<path d="M0 0 C0.66 0.33 1.32 0.66 2 1 C1.67 5.29 1.34 9.58 1 14 C0.34 14 -0.32 14 -1 14 C-0.67 15.98 -0.34 17.96 0 20 C-0.99 20 -1.98 20 -3 20 C-2.69140975 17.22867983 -2.3782967 14.45800014 -2.0625 11.6875 C-1.97548828 10.90181641 -1.88847656 10.11613281 -1.79882812 9.30664062 C-1.71181641 8.54931641 -1.62480469 7.79199219 -1.53515625 7.01171875 C-1.41732788 5.96697388 -1.41732788 5.96697388 -1.29711914 4.90112305 C-1 3 -1 3 0 0 Z " fill="#191D25" transform="translate(529,252)"/>
<path d="M0 0 C0 0.66 0 1.32 0 2 C-2.72175301 2.49882662 -5.44390086 2.99440272 -8.16796875 3.48046875 C-10.26522929 3.86520758 -12.35424997 4.29547272 -14.4375 4.75 C-17.38361403 5.03742576 -18.46767933 4.39788402 -21 3 C-18.43850372 2.49432271 -15.87600535 1.99529868 -13.3125 1.5 C-12.59126953 1.35691406 -11.87003906 1.21382812 -11.12695312 1.06640625 C-7.36158641 0.34428113 -3.85526187 -0.1824976 0 0 Z " fill="#191C26" transform="translate(477,212)"/>
<path d="M0 0 C2 2 2 2 2.265625 4.3125 C2.25789063 5.6428125 2.25789063 5.6428125 2.25 7 C2.25515625 7.886875 2.2603125 8.77375 2.265625 9.6875 C2 12 2 12 0 14 C-1 13 -1 13 -1.1328125 11.07421875 C-1.13023437 10.28660156 -1.12765625 9.49898438 -1.125 8.6875 C-1.12757813 7.90761719 -1.13015625 7.12773437 -1.1328125 6.32421875 C-1.00499912 4.08748461 -0.61913869 2.14733021 0 0 Z " fill="#131720" transform="translate(355,430)"/>
<path d="M0 0 C0.66 0.33 1.32 0.66 2 1 C-1.49359465 4.59634744 -5.11098131 7.83451967 -9 11 C-9.66 10.67 -10.32 10.34 -11 10 C-3.70159453 2.51708428 -3.70159453 2.51708428 0 0 Z " fill="#070A14" transform="translate(415,322)"/>
<path d="M0 0 C0 0.66 0 1.32 0 2 C-1.57701982 2.55978184 -3.16199242 3.09719401 -4.75 3.625 C-5.63171875 3.92664063 -6.5134375 4.22828125 -7.421875 4.5390625 C-10.41017471 5.07333427 -11.49923002 4.62433191 -14 3 C-12.02 3 -10.04 3 -8 3 C-8 2.34 -8 1.68 -8 1 C-3.375 -1.125 -3.375 -1.125 0 0 Z " fill="#151A24" transform="translate(427,178)"/>
<path d="M0 0 C0.66 0.66 1.32 1.32 2 2 C0.625 4 0.625 4 -1 6 C-1.66 6 -2.32 6 -3 6 C-3.33 6.99 -3.66 7.98 -4 9 C-4.99 8.34 -5.98 7.68 -7 7 C-4.69 4.69 -2.38 2.38 0 0 Z " fill="#151A24" transform="translate(461,387)"/>
<path d="M0 0 C0.99 0 1.98 0 3 0 C3 3.39593478 2.47834052 4.06619881 0.5 6.6875 C0.0359375 7.31011719 -0.428125 7.93273437 -0.90625 8.57421875 C-1.2671875 9.04472656 -1.628125 9.51523437 -2 10 C-2 7.33333333 -2 4.66666667 -2 2 C-1.34 2 -0.68 2 0 2 C0 1.34 0 0.68 0 0 Z " fill="#060C16" transform="translate(412,375)"/>
<path d="M0 0 C0 0.66 0 1.32 0 2 C-0.99 2 -1.98 2 -3 2 C-3.33 2.99 -3.66 3.98 -4 5 C-6.70879335 6.35439668 -9.00933268 6.06501451 -12 6 C-8.59780735 3.25207517 -4.51535412 0 0 0 Z " fill="#161B23" transform="translate(413,230)"/>
<path d="M0 0 C3.79620155 1.26540052 4.48678188 2.78218431 6.6875 6.0625 C7.31011719 6.98160156 7.93273437 7.90070312 8.57421875 8.84765625 C9.04472656 9.55792969 9.51523437 10.26820313 10 11 C9.67 11.66 9.34 12.32 9 13 C8.38125 12.195625 7.7625 11.39125 7.125 10.5625 C5.25835959 7.96125481 5.25835959 7.96125481 3 7 C1.94647157 4.69034152 0.94280904 2.3570226 0 0 Z " fill="#090D16" transform="translate(657,665)"/>
<path d="M0 0 C-2.90624297 0.73989213 -5.82150775 1.41650906 -8.75 2.0625 C-9.94882812 2.32740234 -9.94882812 2.32740234 -11.171875 2.59765625 C-11.77515625 2.73042969 -12.3784375 2.86320312 -13 3 C-13 2.01 -13 1.02 -13 0 C-8.38926889 -1.29676812 -4.66159911 -0.71109139 0 0 Z " fill="#141923" transform="translate(346,469)"/>
<path d="M0 0 C0 0.99 0 1.98 0 3 C-3.96 3 -7.92 3 -12 3 C-7.09396701 -0.67952474 -5.82490317 -0.29124516 0 0 Z " fill="#141A26" transform="translate(510,288)"/>
<path d="M0 0 C0.33 0.66 0.66 1.32 1 2 C-4.75 3.125 -4.75 3.125 -7 2 C-7 2.66 -7 3.32 -7 4 C-7.99 3.67 -8.98 3.34 -10 3 C-10 2.34 -10 1.68 -10 1 C-8.71073008 0.63720544 -7.41846728 0.28503302 -6.125 -0.0625 C-5.40570313 -0.25972656 -4.68640625 -0.45695313 -3.9453125 -0.66015625 C-2 -1 -2 -1 0 0 Z " fill="#131821" transform="translate(450,218)"/>
<path d="M0 0 C1.07999887 3.2399966 0.92129428 4.38363535 0.1875 7.625 C0.01605469 8.42164063 -0.15539062 9.21828125 -0.33203125 10.0390625 C-1 12 -1 12 -3 13 C-3.93045933 10.44855176 -4.08564091 9.25993522 -3.22265625 6.640625 C-2.83980469 5.85171875 -2.45695312 5.0628125 -2.0625 4.25 C-1.68222656 3.45078125 -1.30195313 2.6515625 -0.91015625 1.828125 C-0.60980469 1.22484375 -0.30945313 0.6215625 0 0 Z " fill="#171C25" transform="translate(370,377)"/>
<path d="M0 0 C2.64752004 2.57784846 4.94432065 4.91648098 7 8 C6.67 8.99 6.34 9.98 6 11 C5.38125 10.01 4.7625 9.02 4.125 8 C3.42375 7.01 2.7225 6.02 2 5 C1.34 5 0.68 5 0 5 C0 3.35 0 1.7 0 0 Z " fill="#070B14" transform="translate(704,732)"/>
<path d="M0 0 C3.3 0.33 6.6 0.66 10 1 C9.01 1.33 8.02 1.66 7 2 C6.67 2.66 6.34 3.32 6 4 C3.03 3.505 3.03 3.505 0 3 C0 2.01 0 1.02 0 0 Z " fill="#1A202C" transform="translate(550,657)"/>
<path d="M0 0 C1.98120645 2.97180967 2.65962579 4.51116436 3 8 C2.015625 10.16015625 2.015625 10.16015625 1 12 C0.63762737 10.37681021 0.28534843 8.7513642 -0.0625 7.125 C-0.25972656 6.22007812 -0.45695313 5.31515625 -0.66015625 4.3828125 C-1 2 -1 2 0 0 Z " fill="#131821" transform="translate(678,400)"/>
<path d="M0 0 C0.33 1.32 0.66 2.64 1 4 C0.01 4.495 0.01 4.495 -1 5 C-0.67 3.35 -0.34 1.7 0 0 Z M-3 3 C-1.9375 4.8125 -1.9375 4.8125 -1 7 C-1.33 7.99 -1.66 8.98 -2 10 C-2.99 10.33 -3.98 10.66 -5 11 C-4.34 8.36 -3.68 5.72 -3 3 Z " fill="#141922" transform="translate(291,361)"/>
<path d="M0 0 C0.66 0 1.32 0 2 0 C1.67 2.31 1.34 4.62 1 7 C1.66 7 2.32 7 3 7 C3 7.66 3 8.32 3 9 C2.01 9.33 1.02 9.66 0 10 C-0.95024979 6.30458414 -0.95024979 3.69541586 0 0 Z " fill="#070A15" transform="translate(356,422)"/>
<path d="M0 0 C0.33 0 0.66 0 1 0 C1.33 3.3 1.66 6.6 2 10 C1.01 10.33 0.02 10.66 -1 11 C-0.67 7.37 -0.34 3.74 0 0 Z " fill="#20232D" transform="translate(538,196)"/>
<path d="M0 0 C-0.33 0.99 -0.66 1.98 -1 3 C-3.31 3.33 -5.62 3.66 -8 4 C-7.67 3.01 -7.34 2.02 -7 1 C-2.25 0 -2.25 0 0 0 Z " fill="#161B25" transform="translate(244,487)"/>
</svg>
