<?xml version="1.0" encoding="UTF-8"?>
<svg version="1.1" xmlns="http://www.w3.org/2000/svg" width="1536" height="1024">
<path d="M0 0 C506.88 0 1013.76 0 1536 0 C1536 337.92 1536 675.84 1536 1024 C1029.12 1024 522.24 1024 0 1024 C0 686.08 0 348.16 0 0 Z " fill="#000E21" transform="translate(0,0)"/>
<path d="M0 0 C4.21134949 3.93839165 6.91334247 8.04063135 9.5 13.125 C9.82613281 13.76018555 10.15226562 14.39537109 10.48828125 15.04980469 C15.06293805 24.72958381 15.29651946 35.06573531 15.2746582 45.59326172 C15.27976913 46.88096466 15.28488007 48.1686676 15.29014587 49.49539185 C15.30342022 52.99553118 15.3041276 56.49556178 15.30158257 59.99572134 C15.30050495 62.93271456 15.30541627 65.86968647 15.310188 68.80667508 C15.32124318 75.74336634 15.32174316 82.68000343 15.31567383 89.61669922 C15.309637 96.73936606 15.32194678 103.86183521 15.3432439 110.98446834 C15.36093688 117.13092732 15.3668492 123.2773238 15.36360615 129.42380726 C15.36180538 133.08108415 15.36430742 136.73821999 15.37832069 140.39547348 C15.39338785 144.47975988 15.3838621 148.56365126 15.37231445 152.64794922 C15.37995819 153.8369281 15.38760193 155.02590698 15.39547729 156.25091553 C15.30845362 170.2637886 12.26641134 184.98358866 2 195.25 C-10.99292209 205.90273349 -24.06492128 207.44826755 -40.39526367 207.49023438 C-42.66427836 207.49990107 -44.93237043 207.53096492 -47.20117188 207.5625 C-61.8802419 207.67058427 -75.49635081 205.29960783 -86.8125 195.125 C-101.34072842 179.16833665 -99.45899696 156.54367663 -99.40297651 136.53549266 C-99.39528318 132.91994123 -99.4024518 129.30441057 -99.40713501 125.68885803 C-99.41256412 119.62285193 -99.40547562 113.55695609 -99.39111328 107.4909668 C-99.37478484 100.51477731 -99.38008813 93.53885094 -99.3965925 86.56266779 C-99.41028031 80.53160056 -99.41209189 74.50061175 -99.40427649 68.46953398 C-99.3996407 64.88551345 -99.39886052 61.30161591 -99.40888596 57.71760368 C-99.41929704 53.7177502 -99.40480016 49.71833846 -99.38818359 45.71850586 C-99.39425629 44.55810791 -99.40032898 43.39770996 -99.40658569 42.20214844 C-99.2932166 27.35018927 -96.14600172 11.965041 -85.69140625 0.7734375 C-64.56241279 -18.25729564 -21.7908838 -17.34712351 0 0 Z " fill="#FCFCFC" transform="translate(1366,400.75)"/>
<path d="M0 0 C89.72963605 0 89.72963605 0 102 12 C110.43914953 22.32824786 112.62359688 35.35423558 112.49609375 48.31640625 C112.49754898 49.53472641 112.49900421 50.75304657 112.50050354 52.00828552 C112.49885583 54.56373506 112.48742276 57.1191957 112.46655273 59.67456055 C112.43754662 63.55626113 112.44598055 67.43659627 112.45898438 71.31835938 C112.45274677 73.81771488 112.44435567 76.31706613 112.43359375 78.81640625 C112.43652939 79.96049454 112.43946503 81.10458282 112.44248962 82.28334045 C112.28950153 95.53050619 109.49473871 108.28947178 100 118 C97.41395092 119.82516313 94.74547205 121.42975507 92 123 C93.40447853 131.07196521 95.61136687 138.81219707 97.9921875 146.64453125 C98.38370339 147.94419235 98.77481869 149.24397419 99.16555786 150.54386902 C100.18903174 153.94470022 101.2180683 157.3438229 102.24829102 160.74261475 C103.28496659 164.16653166 104.31597771 167.59215297 105.34765625 171.01757812 C106.87076126 176.07090873 108.39593352 181.12360677 109.92529297 186.17504883 C110.26590759 187.30560699 110.60652222 188.43616516 110.9574585 189.60098267 C111.67011258 191.92446195 112.40341073 194.24168301 113.15435791 196.55307007 C113.70467682 198.26062973 113.70467682 198.26062973 114.26611328 200.00268555 C114.76535812 201.51804146 114.76535812 201.51804146 115.27468872 203.06401062 C116 206 116 206 116 212 C102.14 212 88.28 212 74 212 C70.9375 200.625 70.9375 200.625 69.90454102 196.78735352 C68.32213736 190.90856736 66.73864286 185.03008007 65.15234375 179.15234375 C63.7006176 173.77304567 62.25492982 168.3921469 60.81103516 163.01074219 C60.03020752 160.11213701 59.24058599 157.21605502 58.44921875 154.3203125 C57.98676742 152.60943222 57.52451481 150.89849821 57.0625 149.1875 C56.74514893 148.04099976 56.74514893 148.04099976 56.42138672 146.87133789 C55.38933559 143.02025007 55 140.05283213 55 136 C50.05 136 45.1 136 40 136 C40 161.08 40 186.16 40 212 C26.8 212 13.6 212 0 212 C0 142.04 0 72.08 0 0 Z " fill="#FDFDFD" transform="translate(713,393)"/>
<path d="M0 0 C25.67295656 2.82336862 51.264091 22.68021385 67.38110352 42.03515625 C85.22869147 64.39318332 95.16332347 90.08295652 95.24023438 118.74829102 C95.24983701 120.90096246 95.28087185 123.05263408 95.3125 125.20507812 C95.52817452 153.44852678 85.52783342 180.94448184 68 203 C67.56526367 203.5475293 67.13052734 204.09505859 66.68261719 204.65917969 C64.16446076 207.80921204 61.60266948 210.91954578 59 214 C60.49534296 218.44449157 62.94113512 221.87153286 65.75 225.5625 C70.25574963 231.59284232 74.63414346 237.69860619 78.9375 243.875 C79.53006592 244.72441162 80.12263184 245.57382324 80.7331543 246.44897461 C81.91968546 248.15005221 83.10596776 249.85130343 84.29199219 251.55273438 C86.87258325 255.25025364 89.46426869 258.93985918 92.0625 262.625 C92.54783203 263.31335938 93.03316406 264.00171875 93.53320312 264.7109375 C97.12751357 269.79533956 100.7777542 274.8375897 104.4375 279.875 C109.45998599 286.79187332 114.31569549 293.80845481 119.1159668 300.88085938 C122.90486549 306.44560786 126.79312731 311.92858329 130.75 317.375 C134.63590613 322.72795664 138.51675561 328.08254913 142.3125 333.5 C143.38951172 335.03140625 143.38951172 335.03140625 144.48828125 336.59375 C146 339 146 339 146 341 C144.53466797 342.17333984 144.53466797 342.17333984 142.4921875 343.4609375 C141.38230469 344.16863281 141.38230469 344.16863281 140.25 344.890625 C139.46625 345.38046875 138.6825 345.8703125 137.875 346.375 C136.35136288 347.34083099 134.82792192 348.30697152 133.3046875 349.2734375 C132.56702148 349.73459961 131.82935547 350.19576172 131.06933594 350.67089844 C129.24728721 351.84117135 127.50830553 353.07878249 125.7578125 354.3515625 C122.69218474 356.18399156 121.48920105 356.51188778 118 356 C116.18579102 354.20605469 116.18579102 354.20605469 114.50390625 351.671875 C113.55306152 350.26929443 113.55306152 350.26929443 112.58300781 348.83837891 C111.91624023 347.81921387 111.24947266 346.80004883 110.5625 345.75 C109.13201194 343.62726611 107.70101313 341.50487633 106.26953125 339.3828125 C105.55361816 338.3093457 104.83770508 337.23587891 104.10009766 336.12988281 C101.04856646 331.58202999 97.90346276 327.10248301 94.75 322.625 C93.59876721 320.98190473 92.44772259 319.33867759 91.296875 317.6953125 C87.72027674 312.5975123 84.12812529 307.51076932 80.53369141 302.42553711 C74.92375324 294.48476132 69.35372936 286.51610613 63.78222656 278.54833984 C61.43663677 275.19446775 59.08966229 271.84156661 56.7421875 268.48901367 C55.58788581 266.83989572 54.43423161 265.19032436 53.28125 263.5402832 C50.20455779 259.13885573 47.11490933 254.74721601 44.0078125 250.3671875 C43.03328125 248.98853516 43.03328125 248.98853516 42.0390625 247.58203125 C40.78505266 245.80850304 39.52737004 244.03756474 38.265625 242.26953125 C37.70617187 241.47675781 37.14671875 240.68398438 36.5703125 239.8671875 C36.07289551 239.16706543 35.57547852 238.46694336 35.06298828 237.74560547 C34 236 34 236 34 234 C32.98164063 234.50789062 31.96328125 235.01578125 30.9140625 235.5390625 C2.63925312 249.39760625 -26.64238508 255.90062646 -58 250 C-58.66805664 249.87641113 -59.33611328 249.75282227 -60.02441406 249.62548828 C-90.74463455 243.75606218 -118.74714239 225.32959005 -137.5 200.375 C-143.50793923 191.51494016 -148.59368929 182.27442227 -152.9375 172.5 C-153.23213135 171.84169189 -153.5267627 171.18338379 -153.83032227 170.50512695 C-155.47275883 166.68610827 -156.49701234 163.12577221 -157 159 C-147.63005352 156.2136397 -138.83908078 154.33184084 -129 154 C-128.57589844 155.02738281 -128.15179688 156.05476562 -127.71484375 157.11328125 C-116.61875818 183.53847466 -97.97353972 204.54691685 -71.06298828 215.60595703 C-45.92144043 225.27106269 -18.04476218 224.66693255 6.78515625 214.06640625 C29.95381778 203.30915019 49.88561316 183.9436683 59.03027344 159.85961914 C59.72111241 157.91595699 60.37045983 155.96434005 61 154 C61.21027832 153.3517627 61.42055664 152.70352539 61.63720703 152.03564453 C67.13812851 134.1914044 67.88179464 111.81073557 62 94 C61.64808594 92.92492187 61.29617188 91.84984375 60.93359375 90.7421875 C56.76085949 79.09158294 51.05439889 68.40807938 43 59 C42.01773438 57.80117188 42.01773438 57.80117188 41.015625 56.578125 C28.96224906 42.41320875 14.09517962 34.61748888 -3 28 C-2.3972149 18.59337993 -1.32867987 9.32655869 0 0 Z " fill="#FCFCFC" transform="translate(435,349)"/>
<path d="M0 0 C19.14 0 38.28 0 58 0 C61.9375 26.6875 61.9375 26.6875 63.86738586 39.77064514 C65.62450542 51.6820181 67.3829801 63.59318767 69.14453125 75.50390625 C73.66221504 106.05919001 78.14639829 136.6193081 82.61393738 167.18196106 C83.06205347 170.24694587 83.51042557 173.31189314 83.9588623 176.37683105 C84.66539607 181.20616097 85.37117862 186.03560009 86.0763607 190.86512756 C86.33945734 192.66625935 86.60279278 194.46735628 86.86637306 196.26841736 C87.22807552 198.7403707 87.58889058 201.21245191 87.94946289 203.68457031 C88.05690449 204.41750179 88.16434608 205.15043327 88.27504349 205.9055748 C89 210.88578538 89 210.88578538 89 212 C74.81 212 60.62 212 46 212 C45.505 207.38 45.01 202.76 44.5 198 C44.34337891 196.55882812 44.18675781 195.11765625 44.02539062 193.6328125 C43.90357422 192.47523438 43.78175781 191.31765625 43.65625 190.125 C43.53056641 188.95195313 43.40488281 187.77890625 43.27539062 186.5703125 C42.9787015 182.72387473 43 178.85786313 43 175 C32.44 175 21.88 175 11 175 C10.72285156 177.33578125 10.44570313 179.6715625 10.16015625 182.078125 C9.88936839 184.34528904 9.61770032 186.612346 9.34594727 188.87939453 C9.15785183 190.45252688 8.97066874 192.02576859 8.78442383 193.59912109 C8.5162467 195.86325116 8.24476907 198.12696499 7.97265625 200.390625 C7.8491555 201.44240936 7.8491555 201.44240936 7.72315979 202.51544189 C7.32887317 205.76988848 6.79747289 208.81010846 6 212 C-6.21 212 -18.42 212 -31 212 C-27.89465206 184.05186856 -27.89465206 184.05186856 -26.0625 173.4375 C-24.91463531 166.76723118 -24.03079153 160.06382375 -23.14086914 153.35522461 C-22.50656781 148.60162487 -21.8339744 143.85722214 -21.09838867 139.11816406 C-19.93105815 131.56426358 -18.78610506 124.00704375 -17.64453125 116.44921875 C-17.5347205 115.72236311 -17.42490974 114.99550747 -17.31177139 114.2466259 C-16.60098838 109.54125952 -15.89082384 104.83580003 -15.1810112 100.13028717 C-14.81097603 97.67739791 -14.44078172 95.22453269 -14.07058716 92.77166748 C-10.68015491 70.30126748 -7.33046591 47.82584751 -4.10668945 25.33081055 C-3.97632294 24.42605484 -3.84595642 23.52129913 -3.7116394 22.58912659 C-3.47696977 20.95985517 -3.24386757 19.33035652 -3.01296997 17.70054626 C-2.15619908 11.7606821 -1.07595343 5.91774389 0 0 Z " fill="#FCFCFC" transform="translate(871,393)"/>
<path d="M0 0 C13.2 0 26.4 0 40 0 C41.8119347 4.22784763 43.44283781 8.08854133 44.80932617 12.4128418 C45.12943161 13.42046066 45.44953705 14.42807953 45.77934265 15.4662323 C46.11383926 16.53311783 46.44833588 17.60000336 46.79296875 18.69921875 C47.14386063 19.81182571 47.4947525 20.92443268 47.85627747 22.070755 C48.5934723 24.41254935 49.32876241 26.75494406 50.06225586 29.09790039 C51.18762926 32.68791234 52.32298339 36.27466698 53.45898438 39.86132812 C54.17508723 42.14043403 54.89060248 44.41972467 55.60546875 46.69921875 C55.94603806 47.77217697 56.28660736 48.84513519 56.63749695 49.9506073 C56.9481459 50.94876968 57.25879486 51.94693207 57.57885742 52.9753418 C57.99164192 54.28936226 57.99164192 54.28936226 58.4127655 55.62992859 C59 58 59 58 59 62 C59.66 62 60.32 62 61 62 C61.20463867 61.1234375 61.40927734 60.246875 61.62011719 59.34375 C64.65904384 46.73972965 68.43546435 34.38760819 72.25 22 C72.90662481 19.85688563 73.56287738 17.71365718 74.21875 15.5703125 C75.80753942 10.37866222 77.40390824 5.18943204 79 0 C92.86 0 106.72 0 121 0 C115.01500659 18.61186975 108.98656023 37.19473622 102.64877319 55.68896484 C101.7525706 58.30499637 100.85905713 60.92193372 99.96606445 63.5390625 C97.45216665 70.89810789 94.92189152 78.24869768 92.30078125 85.5703125 C91.9150293 86.66819092 91.52927734 87.76606934 91.13183594 88.8972168 C90.45236939 90.82904257 89.75805223 92.7557581 89.04394531 94.67504883 C85.16876632 105.81137123 88.71216924 114.9610415 92.63110352 125.56634521 C94.02668598 129.34546675 95.38286283 133.1388042 96.74609375 136.9296875 C97.16234512 138.08206406 97.16234512 138.08206406 97.58700562 139.25772095 C100.17132489 146.42682567 102.60879224 153.63900593 105 160.875 C105.3916333 162.05819824 105.7832666 163.24139648 106.18676758 164.46044922 C107.0064646 166.93952485 107.8253717 169.41886177 108.64355469 171.8984375 C110.69144604 178.09811899 112.76042423 184.29078953 114.82666016 190.484375 C117.2190878 197.65581166 119.60932617 204.8279785 122 212 C108.14 212 94.28 212 80 212 C76.20521295 200.25075549 72.44530432 188.49745956 68.83203125 176.69140625 C68.56190216 175.8093602 68.29177307 174.92731415 68.01345825 174.01853943 C66.65431253 169.57750382 65.29970183 165.13513598 63.95019531 160.69116211 C63.44734992 159.04408233 62.94442396 157.39702716 62.44140625 155.75 C62.20944046 154.98132095 61.97747467 154.21264191 61.73847961 153.42066956 C60.88617034 149.9319414 60.88617034 149.9319414 59 147 C58.67837891 148.04526855 58.35675781 149.09053711 58.02539062 150.16748047 C51.68359375 170.77832031 45.34179688 191.38916016 39 212 C26.13 212 13.26 212 0 212 C1.27505601 206.26224795 2.53259243 201.00031078 4.328125 195.46875 C4.55364044 194.77147293 4.77915588 194.07419586 5.01150513 193.35578918 C5.75302597 191.06898565 6.50117391 188.78442092 7.25 186.5 C7.77816544 184.87915296 8.30632282 183.2583033 8.83447266 181.63745117 C13.73097761 166.65628894 18.81505009 151.73920957 23.94543457 136.83676147 C24.49294094 135.24253157 25.03814691 133.64750958 25.58093262 132.05166626 C26.94066553 128.0553136 28.33154177 124.07516861 29.78222656 120.11083984 C30.34706315 118.52573679 30.91184388 116.94061384 31.4765625 115.35546875 C31.74560394 114.64675125 32.01464539 113.93803375 32.2918396 113.20783997 C35.26082794 104.74359693 33.10763927 97.38493094 30.21875 89.18359375 C29.79023239 87.93203743 29.79023239 87.93203743 29.35305786 86.65519714 C28.41114213 83.91273052 27.45571306 81.1751857 26.5 78.4375 C25.83576825 76.51178266 25.17220666 74.58583406 24.50927734 72.65966797 C20.81789722 61.96442561 17.04977093 51.29665807 13.2578125 40.63671875 C12.86950256 39.54433395 12.48119263 38.45194916 12.08111572 37.32646179 C10.18740863 32.00269849 8.28659508 26.68165528 6.37304688 21.36499023 C5.67831936 19.42303795 4.98365468 17.48106319 4.2890625 15.5390625 C3.96994904 14.65969528 3.65083557 13.78032806 3.322052 12.87431335 C3.02966644 12.0542128 2.73728088 11.23411224 2.43603516 10.38916016 C2.18149567 9.68248199 1.92695618 8.97580383 1.66470337 8.24771118 C0.86934078 5.55817256 0.46108625 2.76651751 0 0 Z " fill="#FDFDFD" transform="translate(969,393)"/>
<path d="M0 0 C35.97 0 71.94 0 109 0 C109 11.88 109 23.76 109 36 C97.45 36 85.9 36 74 36 C74 94.08 74 152.16 74 212 C60.8 212 47.6 212 34 212 C34 153.92 34 95.84 34 36 C22.78 36 11.56 36 0 36 C0 24.12 0 12.24 0 0 Z " fill="#FDFDFD" transform="translate(590,393)"/>
<path d="M0 0 C13.53 0 27.06 0 41 0 C41 58.41 41 116.82 41 177 C56.84 177 72.68 177 89 177 C89 189.21 89 201.42 89 214 C59.63 214 30.26 214 0 214 C0 143.38 0 72.76 0 0 Z " fill="#F9F9F9" transform="translate(1106,392)"/>
<path d="M0 0 C13.2 0 26.4 0 40 0 C40 70.29 40 140.58 40 213 C26.8 213 13.6 213 0 213 C0 142.71 0 72.42 0 0 Z " fill="#FDFDFD" transform="translate(1208,392)"/>
<path d="M0 0 C2.4085528 0.01853303 4.81672426 0.02050689 7.2253418 0.02026367 C8.77807947 0.02517148 10.33081458 0.03099656 11.88354492 0.0378418 C12.59297745 0.03895462 13.30240997 0.04006744 14.03334045 0.04121399 C18.05946284 0.07944421 21.86583124 0.43342375 25.81713867 1.20581055 C25.31730689 7.53262858 24.63510451 13.81983331 23.77807617 20.1081543 C23.68550537 20.79453979 23.59293457 21.48092529 23.49755859 22.18811035 C23.27181191 23.86082048 23.04462618 25.53333628 22.81713867 27.20581055 C21.30083862 27.17438965 21.30083862 27.17438965 19.75390625 27.14233398 C-7.97908699 26.44970375 -7.97908699 26.44970375 -35.18286133 31.20581055 C-35.85816895 31.38772949 -36.53347656 31.56964844 -37.22924805 31.75708008 C-56.81970514 37.16051155 -74.78192352 48.14323503 -90.18286133 61.20581055 C-90.89055664 61.79104492 -91.59825195 62.3762793 -92.32739258 62.97924805 C-97.10637614 67.0180831 -101.22966208 71.36152131 -105.18286133 76.20581055 C-105.95629883 77.14166992 -106.72973633 78.0775293 -107.52661133 79.04174805 C-114.13100782 87.21186976 -119.37376374 95.87893788 -124.18286133 105.20581055 C-124.50915527 105.83777344 -124.83544922 106.46973633 -125.17163086 107.12084961 C-138.75254744 133.8371786 -140.9763673 161.73927154 -140.18286133 191.20581055 C-143.95258451 192.04422053 -147.72381023 192.87566545 -151.49536133 193.70581055 C-152.5672168 193.94428711 -153.63907227 194.18276367 -154.7434082 194.4284668 C-156.28544922 194.7668457 -156.28544922 194.7668457 -157.85864258 195.11206055 C-158.80650635 195.3215332 -159.75437012 195.53100586 -160.73095703 195.74682617 C-163.18286133 196.20581055 -163.18286133 196.20581055 -166.18286133 196.20581055 C-173.68214148 155.95917275 -160.74339808 108.68380002 -138.18286133 75.20581055 C-131.03166135 64.78520837 -123.0927688 55.16560881 -114.18286133 46.20581055 C-113.70913086 45.72805176 -113.23540039 45.25029297 -112.74731445 44.75805664 C-92.95029931 25.0764562 -67.2775423 11.67027695 -40.49536133 4.39331055 C-39.42910522 4.10073364 -39.42910522 4.10073364 -38.34130859 3.80224609 C-25.66166468 0.56850183 -13.0075873 -0.10358716 0 0 Z " fill="#FBFBFB" transform="translate(392.182861328125,297.794189453125)"/>
<path d="M0 0 C-0.31085327 3.02101088 -0.62363234 6.04180204 -0.9375 9.0625 C-1.06801758 10.33383789 -1.06801758 10.33383789 -1.20117188 11.63085938 C-1.70242013 16.43912966 -2.28000533 21.21949483 -3 26 C-4.19753906 26.03738281 -5.39507812 26.07476562 -6.62890625 26.11328125 C-31.78397086 27.05620653 -53.56984292 33.38626634 -73 50 C-73.75023437 50.60457031 -74.50046875 51.20914063 -75.2734375 51.83203125 C-93.40323631 66.94019692 -105.66143657 91.58399475 -108 115 C-108.45194078 120.99451072 -108.74892974 126.99413503 -109 133 C-110.9154446 133.46341402 -112.83245154 133.92036997 -114.75 134.375 C-115.81734375 134.63023437 -116.8846875 134.88546875 -117.984375 135.1484375 C-123.27794043 136.33591299 -128.64548066 137.14067355 -134 138 C-134.60264796 98.94377644 -126.41381543 65.59572739 -98.70703125 36.7421875 C-82.26380926 20.08541717 -62.53275746 9.07004895 -40 3 C-38.94296875 2.6803125 -37.8859375 2.360625 -36.796875 2.03125 C-24.80659152 -1.15828354 -12.30242745 -0.27058125 0 0 Z " fill="#FCFCFC" transform="translate(410,346)"/>
<path d="M0 0 C1.69576172 -0.03867187 1.69576172 -0.03867187 3.42578125 -0.078125 C7.02736481 0.28418999 8.80990969 1.1006575 11.6875 3.25 C17.49089808 10.5042476 16.83642574 18.04464961 16.83276367 26.91162109 C16.83612228 28.07982895 16.8394809 29.2480368 16.84294128 30.4516449 C16.85243109 34.30891995 16.85439336 38.1661515 16.85546875 42.0234375 C16.85786998 44.02967706 16.86027301 46.03591662 16.86292917 48.04215586 C16.87105893 54.3480941 16.87351474 60.65401806 16.87280273 66.95996094 C16.87220216 73.4503551 16.88275332 79.94066609 16.8985464 86.43103921 C16.91165058 92.01680559 16.91698543 97.60254487 16.91634732 103.18832648 C16.9160932 106.51854503 16.91982605 109.84863082 16.92952538 113.17884445 C16.93933824 116.89582954 16.93644199 120.61260121 16.93041992 124.32958984 C16.93603943 125.42284073 16.94165894 126.51609161 16.94744873 127.64247131 C16.89009479 141.5955909 16.89009479 141.5955909 12.25 147.1875 C6.69856324 151.65572959 -0.51378507 150.94470221 -7.3125 150.25 C-10.91317695 148.69765091 -12.73427487 146.4571825 -14.43725204 142.90181255 C-15.36111997 140.10269197 -15.56399563 137.94813157 -15.56646729 135.00849915 C-15.57210693 133.97272232 -15.57774658 132.9369455 -15.58355713 131.86978149 C-15.57950867 130.74397675 -15.57546021 129.618172 -15.57128906 128.45825195 C-15.5747937 127.264142 -15.57829834 126.07003204 -15.58190918 124.83973694 C-15.58919687 121.57081587 -15.58749636 118.30205711 -15.58115101 115.03313851 C-15.57607431 111.60250787 -15.58078764 108.1718878 -15.58392334 104.74125671 C-15.58756058 98.97535264 -15.58277282 93.20949981 -15.57324219 87.44360352 C-15.56238389 80.79818858 -15.56586501 74.15289663 -15.576895 67.50748473 C-15.5860057 61.7875191 -15.58723397 56.06759026 -15.58201766 50.34761971 C-15.57891534 46.93798226 -15.57843987 43.52840234 -15.58509064 40.11876869 C-15.59019455 36.30866947 -15.58238997 32.49880271 -15.57128906 28.6887207 C-15.57533752 27.57303711 -15.57938599 26.45735352 -15.58355713 25.30786133 C-15.49554874 8.9242347 -15.49554874 8.9242347 -10.8125 3.1875 C-6.97827603 0.21597642 -4.8303062 0.06564403 0 0 Z " fill="#051224" transform="translate(1323.3125,423.75)"/>
<path d="M0 0 C-0.47327419 3.79242669 -0.95461435 7.58378611 -1.4375 11.375 C-1.63956055 12.99535156 -1.63956055 12.99535156 -1.84570312 14.6484375 C-2.04389648 16.1953125 -2.04389648 16.1953125 -2.24609375 17.7734375 C-2.36654053 18.72653809 -2.4869873 19.67963867 -2.61108398 20.66162109 C-3 23 -3 23 -4 25 C-6.25140949 25.65430659 -8.52809842 26.22229629 -10.8125 26.75 C-25.67051971 30.49456042 -37.86657559 37.6773047 -46 51.0625 C-50.32225319 59.14862918 -51.96711877 65.70406891 -53 75 C-61.25 76.65 -69.5 78.3 -78 80 C-78.78409122 59.22158265 -72.17103812 40.44210452 -58 25 C-57.32453125 24.23300781 -56.6490625 23.46601563 -55.953125 22.67578125 C-41.67460056 7.32897305 -20.73445207 -0.80843419 0 0 Z " fill="#FBFBFB" transform="translate(404,395)"/>
<path d="M0 0 C22 0 22 0 28 4 C31.66824167 9.16093348 31.45236567 14.30668733 31.43359375 20.40234375 C31.4388356 21.39827042 31.44407745 22.39419708 31.44947815 23.42030334 C31.45588425 25.52067129 31.4545797 27.62107517 31.44604492 29.72143555 C31.43753675 32.92366833 31.46631412 36.12411514 31.49804688 39.32617188 C31.49965919 41.3723953 31.49908078 43.41862187 31.49609375 45.46484375 C31.51294472 46.89170753 31.51294472 46.89170753 31.53013611 48.34739685 C31.46715495 54.39686727 30.81371508 58.19967912 27 63 C20 66 20 66 0 66 C0 44.22 0 22.44 0 0 Z " fill="#031123" transform="translate(753,428)"/>
<path d="M0 0 C0.33 0 0.66 0 1 0 C1.06850662 0.61069336 1.13701324 1.22138672 1.20759583 1.85058594 C1.93615218 8.34248908 2.66685656 14.83414814 3.39868164 21.32568359 C3.66971456 23.73220003 3.9402415 26.13877352 4.21020508 28.54541016 C5.72993296 42.08994953 7.28479337 55.62680162 9.0349884 69.14379883 C9.96804664 76.42631457 10.58333622 83.66671754 11 91 C3.74 91 -3.52 91 -11 91 C-11 84.99715161 -10.84661937 79.45054219 -10.09790039 73.55859375 C-10.00197098 72.76884659 -9.90604156 71.97909943 -9.8072052 71.16542053 C-9.49275436 68.58875069 -9.1704609 66.01313552 -8.84765625 63.4375 C-8.62549589 61.63676233 -8.40369473 59.83598031 -8.18223572 58.03515625 C-7.71913227 54.27934349 -7.25222093 50.52403004 -6.7824707 46.76904297 C-6.17941557 41.94654557 -5.58518455 37.12300948 -4.99364567 32.29908752 C-4.53790603 28.58937796 -4.07797164 24.88019817 -3.61669731 21.1711731 C-3.39579991 19.39143821 -3.17612902 17.61155066 -2.95768929 15.83151245 C-2.65317055 13.3558774 -2.34312086 10.88099893 -2.03149414 8.40625 C-1.94158203 7.66657486 -1.85166992 6.92689972 -1.7590332 6.16481018 C-1.11432702 1.11432702 -1.11432702 1.11432702 0 0 Z " fill="#071425" transform="translate(898,442)"/>
<path d="M0 0 C7.26 0 14.52 0 22 0 C22 0.66 22 1.32 22 2 C15.4 2 8.8 2 2 2 C1.67 2.66 1.34 3.32 1 4 C0.67 2.68 0.34 1.36 0 0 Z " fill="#1F2532" transform="translate(753,428)"/>
<path d="M0 0 C0.33 0 0.66 0 1 0 C1.22197585 2.10277123 1.42713637 4.20732302 1.625 6.3125 C1.74101563 7.48425781 1.85703125 8.65601563 1.9765625 9.86328125 C2 13 2 13 0 16 C-0.66 16 -1.32 16 -2 16 C-1.85975781 13.52039864 -1.7130815 11.04147598 -1.5625 8.5625 C-1.52318359 7.85544922 -1.48386719 7.14839844 -1.44335938 6.41992188 C-1.11328125 1.11328125 -1.11328125 1.11328125 0 0 Z " fill="#1F2735" transform="translate(898,442)"/>
<path d="M0 0 C0.99 0.33 1.98 0.66 3 1 C0.69 3.31 -1.62 5.62 -4 8 C-4.33 7.01 -4.66 6.02 -5 5 C-3.35 3.35 -1.7 1.7 0 0 Z " fill="#1D2532" transform="translate(333,398)"/>
</svg>
